<svg xmlns="http://www.w3.org/2000/svg" viewBox="0 0 24 24" fill="currentColor">
  <path d="M12.75 8.25a.75.75 0 0 1 .75-.75h7.5a.75.75 0 0 1 0 1.5h-7.5a.75.75 0 0 1-.75-.75ZM7.5 6.75v-.75a.75.75 0 0 0-1.5 0v.75a.75.75 0 0 0 1.5 0ZM6 15.75a.75.75 0 0 1-.75.75H3.75a.75.75 0 0 1 0-1.5h1.5a.75.75 0 0 1 .75.75ZM6 8.25a.75.75 0 0 1-.75.75H3.75a.75.75 0 0 1 0-1.5h1.5A.75.75 0 0 1 6 8.25ZM18 8.25a.75.75 0 0 1 .75.75v8.25a3 3 0 0 1-3 3h-1.5a3 3 0 0 1-3-3V9a.75.75 0 0 1 .75-.75h5.25ZM15.75 9a.75.75 0 0 0-.75.75v8.25a1.5 1.5 0 0 0 1.5 1.5H18a1.5 1.5 0 0 0 1.5-1.5V9.75a.75.75 0 0 0-.75-.75h-3Z" />
</svg>